<svg data-v-0dd9719b="" version="1.0" xmlns="http://www.w3.org/2000/svg" xmlns:xlink="http://www.w3.org/1999/xlink" width="100%" height="100%" viewBox="0 0 340.000000 250.000000" preserveAspectRatio="xMidYMid meet" color-interpolation-filters="sRGB" style="margin: auto;"> <rect data-v-0dd9719b="" x="0" y="0" width="100%" height="100%" fill="#fff" fill-opacity="1" class="background"></rect> <rect data-v-0dd9719b="" x="0" y="0" width="100%" height="100%" fill="url(#watermark)" fill-opacity="1" class="watermarklayer"></rect> <g data-v-0dd9719b="" fill="#333" class="icon-text-wrapper icon-svg-group iconsvg" transform="translate(49.83000183105469,91.29364776611328)"><g class="iconsvg-imagesvg" transform="translate(0,0)"><g><rect fill="#333" fill-opacity="0" stroke-width="2" x="0" y="0" width="59.99999999999999" height="67.41270055278413" class="image-rect"></rect> <svg x="0" y="0" width="59.99999999999999" height="67.41270055278413" filtersec="colorsb8537628602" class="image-svg-svg primary" style="overflow: visible;"><svg xmlns="http://www.w3.org/2000/svg" viewBox="-0.042548470199108124 -0.019553937017917633 76.11341857910156 85.51720428466797"><title>资源 147</title><path d="M0 44.71V25.84c0-.57-.24-1.31.42-1.62s1.14.14 1.64.46C5.74 27 9.57 29 13.29 31.16Q24 37.42 34.8 43.61a2.73 2.73 0 0 1 1.5 2.7v37.52c0 1.84-.24 2-1.92 1.24s-3.1-1.75-4.64-2.64L20.25 77c-2.22-1.28-4.41-2.6-6.63-3.88S9.23 70.63 7 69.37 2.87 66.93.77 65.76C0 65.34 0 64.71 0 64V44.71zm8.49 4.71v9.82c0 .56 0 1.1.58 1.45q8.6 4.94 17.18 9.9c.88.51 1.22.33 1.23-.7V50.24a1.53 1.53 0 0 0-.86-1.44c-1.87-1.06-3.73-2.15-5.59-3.22-3.71-2.13-7.42-4.26-11.13-6.36-.4-.23-.74-.87-1.22-.56s-.2.91-.2 1.38c.04 3.12.05 6.25.05 9.38z" fill="#e8391c"></path><path d="M76.06 44.68v18.66a2.53 2.53 0 0 1-1.5 2.55c-8.56 4.89-17.13 9.86-25.7 14.8l-7.33 4.25c-1.52.88-1.9.68-1.9-1V46.39a2.69 2.69 0 0 1 1.52-2.6Q52 37.54 62.78 31.27q5.79-3.36 11.57-6.73c1.22-.72 1.7-.49 1.7.92.01 6.4 0 12.81.01 19.22zM48.12 60.14v10c0 1.1.21 1.23 1.16.7 1.27-.7 2.5-1.47 3.75-2.19 4.57-2.64 9.14-5.29 13.73-7.91a1.42 1.42 0 0 0 .79-1.35V39.28c0-1-.32-1.11-1.18-.62q-8.58 5-17.18 9.94a1.92 1.92 0 0 0-1.09 1.88c.05 3.25.02 6.46.02 9.66z" fill="#fecc01"></path><path d="M37.62 41.08a10.83 10.83 0 0 1-1.55-.68C33 38.62 30 36.78 27 35c-3.4-2-6.84-3.88-10.25-5.84-3.06-1.76-6.1-3.56-9.15-5.34a47.6 47.6 0 0 1-4.32-2.51c-.87-.65-.88-1 0-1.56 2.74-1.65 5.51-3.25 8.27-4.85q7-4 13.91-8L37 .29a1.77 1.77 0 0 1 2 0q5.67 3.33 11.39 6.6c2.89 1.66 5.8 3.3 8.7 4.95 2.19 1.26 4.38 2.52 6.56 3.8s4.6 2.72 6.9 4.08c1.05.62 1.09 1 0 1.63-1.91 1.15-3.86 2.24-5.79 3.36-4.27 2.48-8.53 5-12.81 7.45-3 1.73-6 3.37-9 5.14-2 1.2-4 2.39-6.08 3.51a1.46 1.46 0 0 1-1.25.27zm.45-9.48c.16-.05.41-.13.65-.23 1.81-.78 3.39-2 5.11-2.91 2.38-1.3 4.71-2.69 7.06-4.05q2.76-1.59 5.49-3.21c.69-.41.81-.83 0-1.26-.63-.32-1.2-.75-1.81-1.11l-7.23-4.19c-2.7-1.56-5.41-3.1-8.11-4.67a2.25 2.25 0 0 0-2.53 0c-1.34.88-2.77 1.59-4.15 2.39-4.37 2.53-8.7 5.11-13.07 7.64-.69.4-.82.65-.11 1.16 1.33.95 2.83 1.62 4.24 2.44 4.32 2.49 8.63 5 13 7.48a2.94 2.94 0 0 0 1.46.52z" fill="#6000e8"></path><path d="M24.21 58.08v5.58c0 1.32-.32 1.56-1.43.94-3.42-1.91-6.78-3.86-10.18-5.8a1.79 1.79 0 0 1-.91-1.68V45.96c0-1.26.56-1.55 1.62-.94 3.23 1.86 6.43 3.73 9.67 5.56a2.13 2.13 0 0 1 1.24 2.14c-.07 1.78-.01 3.57-.01 5.36z" fill="#e8391c"></path><path d="M64.2 51.61v5.58a1.62 1.62 0 0 1-.78 1.6l-9.76 5.57c-.22.13-.47.23-.7.34-1 .43-1.47.19-1.47-.85V52.36a1.63 1.63 0 0 1 .77-1.36c2.05-1.48 4.37-2.52 6.5-3.87 1.12-.72 2.3-1.36 3.47-2 1.45-.79 2-.5 2 1.14s-.03 3.55-.03 5.34z" fill="#fecc01"></path><path d="M37.81 27.42a2 2 0 0 1-1.05-.31c-3.18-1.85-6.37-3.68-9.53-5.54-1.37-.8-1.37-1.22 0-2 3.3-1.93 6.63-3.81 9.94-5.72a1.35 1.35 0 0 1 1.47 0c3.46 2 6.94 4 10.4 6 .91.53.89 1 0 1.49l-10 5.7a2.22 2.22 0 0 1-1.23.38z" fill="#6000e8"></path></svg></svg> <!----></g></g> <g transform="translate(67,14.281352996826172)"><g data-gra="path-name" fill-rule="" class="tp-name iconsvg-namesvg"><g transform="scale(1)"><g><path d="M18.44 5.81L18.44 5.81Q15.23 5.81 12.38 4.31 9.53 2.82 7.33-0.06L7.33-0.06Q5.24-2.76 4.14-6.17 3.05-9.59 3.05-13.36L3.05-13.36Q3.05-17.14 4.14-20.58 5.24-24.02 7.33-26.73L7.33-26.73Q9.53-29.61 12.38-31.1 15.23-32.59 18.44-32.59L18.44-32.59Q21.6-32.59 24.45-31.1 27.29-29.61 29.49-26.73L29.49-26.73Q31.58-24.02 32.68-20.58 33.78-17.14 33.78-13.36L33.78-13.36Q33.78-9.59 32.68-6.17 31.58-2.76 29.49-0.06L29.49-0.06Q27.29 2.82 24.45 4.31 21.6 5.81 18.44 5.81ZM18.44-28.14L18.44-28.14Q16.18-28.14 14.18-26.98 12.18-25.83 10.69-23.83 9.19-21.82 8.32-19.12 7.44-16.41 7.44-13.36L7.44-13.36Q7.44-10.32 8.32-7.64 9.19-4.96 10.69-2.96 12.18-0.96 14.18 0.2 16.18 1.35 18.44 1.35L18.44 1.35Q20.7 1.35 22.7 0.2 24.7-0.96 26.17-2.96 27.63-4.96 28.51-7.64 29.38-10.32 29.38-13.36L29.38-13.36Q29.38-16.41 28.51-19.12 27.63-21.82 26.17-23.83 24.7-25.83 22.7-26.98 20.7-28.14 18.44-28.14ZM57.24 5.98L57.24 5.98 52.78 5.98 52.78-30.34 57.24-30.34 57.24 5.98ZM69.64-28.14L69.64-28.14 40.38-28.14 40.38-32.54 69.64-32.54 69.64-28.14ZM91.13 5.81L91.13 5.81Q87.91 5.81 85.07 4.31 82.22 2.82 80.02-0.06L80.02-0.06Q77.93-2.76 76.83-6.17 75.73-9.59 75.73-13.36L75.73-13.36Q75.73-17.14 76.83-20.58 77.93-24.02 80.02-26.73L80.02-26.73Q82.22-29.61 85.07-31.1 87.91-32.59 91.13-32.59L91.13-32.59Q94.29-32.59 97.13-31.1 99.98-29.61 102.18-26.73L102.18-26.73Q104.27-24.02 105.37-20.58 106.47-17.14 106.47-13.36L106.47-13.36Q106.47-9.59 105.37-6.17 104.27-2.76 102.18-0.06L102.18-0.06Q99.98 2.82 97.13 4.31 94.29 5.81 91.13 5.81ZM91.13-28.14L91.13-28.14Q88.87-28.14 86.87-26.98 84.87-25.83 83.37-23.83 81.88-21.82 81.01-19.12 80.13-16.41 80.13-13.36L80.13-13.36Q80.13-10.32 81.01-7.64 81.88-4.96 83.37-2.96 84.87-0.96 86.87 0.2 88.87 1.35 91.13 1.35L91.13 1.35Q93.38 1.35 95.39 0.2 97.39-0.96 98.85-2.96 100.32-4.96 101.19-7.64 102.07-10.32 102.07-13.36L102.07-13.36Q102.07-16.41 101.19-19.12 100.32-21.82 98.85-23.83 97.39-25.83 95.39-26.98 93.38-28.14 91.13-28.14ZM118.76-30.06L118.76 6.26 114.3 6.26 114.3-30.06 118.76-30.06ZM139.17 3.78L135.51 6.26 122.88-12.35 122.88-15.34 127.73-15.34Q129.25-15.34 130.6-15.85 131.95-16.35 132.94-17.23 133.93-18.1 134.52-19.26 135.11-20.41 135.11-21.77L135.11-21.77Q135.11-23.06 134.52-24.22 133.93-25.38 132.94-26.25 131.95-27.12 130.6-27.63 129.25-28.14 127.73-28.14L127.73-28.14 112.84-28.14 112.84-32.54 127.73-32.54Q130.15-32.54 132.29-31.69 134.44-30.85 136.04-29.38 137.65-27.91 138.58-25.94 139.51-23.97 139.51-21.77L139.51-21.77Q139.51-19.68 138.72-17.85 137.93-16.02 136.52-14.58 135.11-13.14 133.25-12.18 131.39-11.22 129.19-11L129.19-11 139.17 3.78ZM161.05 5.81L161.05 5.81Q157.84 5.81 154.99 4.31 152.14 2.82 149.94-0.06L149.94-0.06Q147.86-2.76 146.76-6.17 145.66-9.59 145.66-13.36L145.66-13.36Q145.66-17.14 146.76-20.58 147.86-24.02 149.94-26.73L149.94-26.73Q152.14-29.61 154.99-31.1 157.84-32.59 161.05-32.59L161.05-32.59Q164.21-32.59 167.06-31.1 169.91-29.61 172.11-26.73L172.11-26.73Q174.19-24.02 175.29-20.58 176.39-17.14 176.39-13.36L176.39-13.36Q176.39-9.59 175.29-6.17 174.19-2.76 172.11-0.06L172.11-0.06Q169.91 2.82 167.06 4.31 164.21 5.81 161.05 5.81ZM161.05-28.14L161.05-28.14Q158.8-28.14 156.8-26.98 154.79-25.83 153.3-23.83 151.8-21.82 150.93-19.12 150.06-16.41 150.06-13.36L150.06-13.36Q150.06-10.32 150.93-7.64 151.8-4.96 153.3-2.96 154.79-0.96 156.8 0.2 158.8 1.35 161.05 1.35L161.05 1.35Q163.31 1.35 165.31 0.2 167.31-0.96 168.78-2.96 170.24-4.96 171.12-7.64 171.99-10.32 171.99-13.36L171.99-13.36Q171.99-16.41 171.12-19.12 170.24-21.82 168.78-23.83 167.31-25.83 165.31-26.98 163.31-28.14 161.05-28.14Z" transform="translate(-3.049999952316284, 32.59000015258789)"></path></g> <!----> <!----> <!----> <!----> <!----> <!----> <!----></g></g> <!----></g></g><defs v-gra="od"></defs></svg>